<?xml version="1.0" encoding="UTF-8"?>
<svg id="Layer_1" data-name="Layer 1" xmlns="http://www.w3.org/2000/svg" viewBox="0 0 1229.69 453.45">
  <path d="M324.25,104.11l-119.7,93.84-110.09,86.85-44.08,35.01-50.38-.34,67.25-53.08,223.2-175.39c25.59-20.11,50.71-40.18,78.54-59-10.36,15.14-26.75,23.16-39.02,35.89l101.52,82.17,68.26,55.72-48.88.36-126.6-102.03Z"/>
  <polygon points="143.37 300.72 143.31 374.85 107.22 401.51 107.17 299.87 233.42 200.77 324.46 129.24 408.52 196.73 325.89 160 234.18 230.48 143.37 300.72"/>
  <path d="M759.23,415.23H101.4c-2.76,7.97-10.41,12.72-18.17,11.01s-12.49-7.83-12.37-14.74c.13-7.41,4.68-13.34,13-15.05l.04-96.43c0-1.84,2.45-3.73,4.37-4.06l.04,100.52c8,1.12,12.35,6.79,13.33,14.19l656.61-.03c1.43,0,3.04,1.06,3.45,1.74s-1.44,2.84-2.47,2.84ZM93.5,419.33c3.47-2.86,4.37-7.1,3.23-10.97-.98-3.32-4.18-6.54-8.08-7.38-5.64-1.21-10.42,1.73-12.41,6.26s-.42,10.07,3.67,12.88,9.25,2.79,13.6-.8Z"/>
  <g>
    <path d="M580.4,343.95l-.26-61.65-36.32,48.97c-.57.77-1.77,1.88-2.42,2.27-.81.48-3-.77-3.63-1.59l-38.04-49.56-.2,61.45h-17.91s.05-89.22.05-89.22l18.19.04,41.04,52.93,39.41-52.88,17.42-.07-.05,89.26-17.28.07Z"/>
    <path d="M429.73,281.06c6.92,20.07,3.51,46.2-18.54,56.67-8.46,3.65-17.48,6.1-27.13,6.11l-56.54.07v-89.37s54.61,0,54.61,0c9.92.52,19.13,2.18,28.09,6.03,8.75,4.51,16.23,10.95,19.52,20.49ZM414,300.17c-.12-7.9-1.71-14.62-6.38-20.14-12.25-14.12-42.99-8.85-61.76-9.61v58.23s32.3-.01,32.3-.01c17.89,0,36.16-6.91,35.84-28.47Z"/>
    <polygon points="1186.73 343.68 1167.09 343.9 1101.93 278.94 1101.65 343.81 1083.88 343.83 1083.84 254.58 1103.13 254.6 1168.62 319.55 1168.86 254.59 1186.75 254.69 1186.73 343.68"/>
    <polygon points="813.45 343.61 794.27 343.74 729.09 278.4 728.7 343.77 710.35 343.88 710.29 254.73 731.21 254.53 795.49 319.22 795.78 254.57 813.44 254.58 813.45 343.61"/>
    <path d="M1068.97,319.52c-9.32,29.88-53.5,29.22-77.16,23.34-13.73-3.41-23.82-13.33-26.96-27.06-5.4-23.62-.23-52.61,27.04-59.61,22.64-5.81,66.25-6.7,76.32,21.13,4.91,13.56,5.04,28.45.75,42.2ZM1035.08,328.13c18.43-4.02,19.97-25.04,17.16-39.5-1.76-9.08-8.25-15.68-17.41-17.83-11.34-2.66-23.26-2.65-34.67-.19-19.2,4.14-19.89,27.26-16.3,42.06,4.97,20.51,35.27,18.94,51.22,15.46Z"/>
    <path d="M913.06,338.14c-5.33,3.81-12.4,5.74-18.94,5.75l-67.67.08.21-15.25,66.74-.38c5.39-.03,9.03-4.29,9.39-8.4.46-5.23-2.81-8.84-8.48-9.74l-32.6-5.13c-16.2-2.55-35.91-6.07-35.63-26.44.23-16.99,13.8-24.18,29-24.16l64,.1-7.37,15.65-57.56.14c-4.09,0-7.7,3.7-8.05,6.81-.39,3.45,2.12,7.38,6.06,8.45,19.12,5.2,35.33,4.73,53.75,10.22,9.79,2.92,15.77,10.88,16.17,20.82.33,8.13-1.82,16.32-9.04,21.48Z"/>
    <polygon points="691.66 306.67 630.05 306.82 629.97 328.59 700.41 328.75 695.02 343.94 611.99 343.91 611.93 254.53 697.68 254.53 697.71 270.15 629.88 270.24 629.91 291.63 691.48 291.64 691.66 306.67"/>
    <path d="M225.24,324.52c13.43,4.75,69.77,13.16,67.24-10.36-1.71-15.91-32.06-9.64-40.43-11.88-.78-.21-.75-2.81,0-3.71l24.36-28.93-54.22-.35,6.45-14.77,79.57-.02c.79,1.53-.28,3.23-1.52,4.67l-26.56,30.93c9.2,1.13,17.53,2.12,24.09,8.5,9.38,9.14,9.76,25.01.94,34.82-15.53,17.27-59.66,13.39-79.91,7.35l-.02-16.27Z"/>
    <polygon points="465.27 343.6 447.34 343.78 447.41 254.53 465.23 254.62 465.27 343.6"/>
    <polygon points="951.55 343.6 933.1 343.71 933.14 254.61 951.52 254.57 951.55 343.6"/>
  </g>
  <path d="M88.3,244.37c-1.15,1.66-2.8,2.86-4.42,3.32v-58.67c0-.88,1.38-2.61,2.19-2.63s2.22,1.76,2.22,2.6v55.37Z"/>
  <g>
    <path d="M222.14,394.12l15.44-34.1h4.82l15.49,34.1h-5.11l-13.79-31.37h1.95l-13.78,31.37h-5.02ZM228.72,385.59l1.32-3.9h19.19l1.41,3.9h-21.92Z"/>
    <path d="M309.23,394.12v-34.1h13.3c4.42,0,7.89,1.05,10.42,3.14,2.53,2.09,3.8,5.01,3.8,8.74,0,2.47-.57,4.59-1.7,6.36-1.14,1.77-2.76,3.13-4.87,4.07-2.11.94-4.66,1.41-7.65,1.41h-10.62l2.19-2.24v12.62h-4.87ZM314.1,381.99l-2.19-2.39h10.47c3.12,0,5.48-.67,7.09-2.02,1.61-1.35,2.41-3.24,2.41-5.67s-.8-4.32-2.41-5.65c-1.61-1.33-3.97-2-7.09-2h-10.47l2.19-2.44v20.16ZM332.02,394.12l-8.67-12.37h5.21l8.77,12.37h-5.31Z"/>
    <path d="M406.16,394.51c-2.6,0-4.99-.43-7.18-1.29-2.19-.86-4.09-2.08-5.7-3.65-1.61-1.57-2.87-3.42-3.77-5.53-.91-2.11-1.36-4.43-1.36-6.97s.45-4.85,1.36-6.96c.91-2.11,2.17-3.95,3.8-5.53,1.62-1.57,3.53-2.79,5.72-3.65,2.19-.86,4.59-1.29,7.18-1.29s5.06.45,7.28,1.34c2.22.89,4.12,2.22,5.67,3.97l-3.17,3.07c-1.3-1.36-2.76-2.38-4.38-3.04-1.62-.67-3.36-1-5.21-1s-3.69.32-5.33.97c-1.64.65-3.06,1.56-4.26,2.73s-2.14,2.56-2.8,4.16c-.67,1.61-1,3.35-1,5.24s.33,3.63,1,5.24c.67,1.61,1.6,3,2.8,4.16s2.62,2.08,4.26,2.73c1.64.65,3.42.97,5.33.97s3.59-.33,5.21-1c1.62-.67,3.08-1.7,4.38-3.09l3.17,3.07c-1.56,1.75-3.45,3.09-5.67,3.99-2.22.91-4.67,1.36-7.33,1.36Z"/>
    <path d="M471.91,394.12v-34.1h4.87v34.1h-4.87ZM476.3,378.92v-4.24h20.51v4.24h-20.51ZM496.36,394.12v-34.1h4.87v34.1h-4.87Z"/>
    <path d="M557.74,394.12v-34.1h4.87v34.1h-4.87Z"/>
    <path d="M625.88,394.12v-29.86h-11.69v-4.24h28.2v4.24h-11.69v29.86h-4.82Z"/>
    <path d="M693.97,394.12v-34.1h24.06v4.24h-19.19v25.62h19.87v4.24h-24.74ZM698.4,378.87v-4.14h17.53v4.14h-17.53Z"/>
    <path d="M788.07,394.51c-2.6,0-4.99-.43-7.18-1.29-2.19-.86-4.09-2.08-5.7-3.65-1.61-1.57-2.87-3.42-3.77-5.53-.91-2.11-1.36-4.43-1.36-6.97s.45-4.85,1.36-6.96c.91-2.11,2.17-3.95,3.8-5.53,1.62-1.57,3.53-2.79,5.72-3.65,2.19-.86,4.59-1.29,7.18-1.29s5.06.45,7.28,1.34c2.22.89,4.12,2.22,5.67,3.97l-3.17,3.07c-1.3-1.36-2.76-2.38-4.38-3.04-1.62-.67-3.36-1-5.21-1s-3.69.32-5.33.97c-1.64.65-3.06,1.56-4.26,2.73s-2.14,2.56-2.8,4.16c-.67,1.61-1,3.35-1,5.24s.33,3.63,1,5.24c.67,1.61,1.6,3,2.8,4.16s2.62,2.08,4.26,2.73c1.64.65,3.42.97,5.33.97s3.59-.33,5.21-1c1.62-.67,3.08-1.7,4.38-3.09l3.17,3.07c-1.56,1.75-3.45,3.09-5.67,3.99-2.22.91-4.67,1.36-7.33,1.36Z"/>
    <path d="M859.77,394.12v-29.86h-11.69v-4.24h28.2v4.24h-11.69v29.86h-4.82Z"/>
    <path d="M941.36,394.51c-4.48,0-8-1.28-10.57-3.85-2.57-2.56-3.85-6.32-3.85-11.25v-19.39h4.87v19.19c0,3.8.84,6.58,2.51,8.33,1.67,1.75,4.03,2.63,7.09,2.63s5.46-.88,7.14-2.63c1.67-1.75,2.51-4.53,2.51-8.33v-19.19h4.72v19.39c0,4.94-1.28,8.69-3.82,11.25-2.55,2.57-6.08,3.85-10.59,3.85Z"/>
    <path d="M1012.03,394.12v-34.1h13.3c4.42,0,7.89,1.05,10.42,3.14,2.53,2.09,3.8,5.01,3.8,8.74,0,2.47-.57,4.59-1.7,6.36-1.14,1.77-2.76,3.13-4.87,4.07-2.11.94-4.66,1.41-7.65,1.41h-10.62l2.19-2.24v12.62h-4.87ZM1016.9,381.99l-2.19-2.39h10.47c3.12,0,5.48-.67,7.09-2.02,1.61-1.35,2.41-3.24,2.41-5.67s-.8-4.32-2.41-5.65c-1.61-1.33-3.97-2-7.09-2h-10.47l2.19-2.44v20.16ZM1034.83,394.12l-8.67-12.37h5.21l8.77,12.37h-5.31Z"/>
    <path d="M1088.55,394.12l15.44-34.1h4.82l15.49,34.1h-5.11l-13.79-31.37h1.95l-13.78,31.37h-5.02ZM1095.13,385.59l1.32-3.9h19.19l1.41,3.9h-21.92Z"/>
    <path d="M1175.64,394.12v-34.1h4.87v29.86h18.46v4.24h-23.33Z"/>
  </g>
</svg>