<svg xmlns="http://www.w3.org/2000/svg" height="467" viewBox="0 0 467 467" width="467"><g fill="none" fill-rule="evenodd" stroke="#000" stroke-linecap="round" stroke-opacity=".7"><path d="m168 186 268-73" opacity=".5" stroke-width=".15"></path><path d="m382 45 56 100m1 115-170 160m170-167-170 137m-239-218 128-48m224 66-238-66m-114 139 137 43m123 84-260-115m260 144-260-132m250-114 158 33m-141-32-267 36m0 50 275 75m-21 1 155-91m-31-191-378 136m137 29-137 3m114-3 295 5m-288 82 288-73" stroke-width=".26"></path><path d="m383 42 56 100m0 115-170 160m170-166-170 137m-239-219 128-48m225 66-239-66m-114 139 138 43m122 84-260-115m260 145-260-132m251-115 158 33m-141-32-268 36m0 51 275 75m-21 0 155-91m-30-191-379 136m138 29-138 3m114-3 295 5m-288 82 288-73" opacity=".5" stroke-width=".15"></path><path d="m383 47 56 100m0 115-170 160m170-166-170 137m-239-219 128-48m225 66-239-66m-114 139 138 43m122 84-260-115m260 145-260-132m251-115 158 33m-141-32-268 36m0 51 275 75m-21 0 155-91m-30-191-379 136m138 29-138 3m114-3 295 5m-288 82 288-73" opacity=".5" stroke-width=".15"></path><path d="m34 170.41v119.69l4 1.9v-123zm4-1.41 4 .87v120.9l-4 1.23m122 11v-175l8 2.35v170.51zm0-175-8 2.5v169.99l8 2.51zm40 59.8v118.53l6 1.67v-121zm6-.8 6 .97v117.79l-6 2.24m85 23v-156l-9 1.1v152.54z" stroke-width=".26"></path><path d="m290 175 8 1.64v149.73l-8 4.63z" stroke-width=".26"></path><path d="m391 60v245l5-4.43v-232.16zm-1 0-7 2.64v241.35l7 1.01z" stroke-width=".51"></path><path d="m431 132.04v134.3l-3 2.66v-142zm-3-5.04-4 1.5v140.5h4m-172-160.72v177.57l6 1.15v-181zm6-2.28 6 3.48v174.48l-6 3.04zm135 200-367-51" stroke-width=".26"></path><g stroke-width=".51"><path d="m424 295-61-6.28v-98.72m-8-103-68 23m5-5v70m0-66.86 13.8 5.86 46.2-14m-46 14v63m5 2v-61.27l42-12.73"></path><path d="m311 117.9 3.51 2.1 38.49-12m-39 12v60m22-70v74"></path><path d="m339 185.47v-76.47l3 2.38v74.62" stroke-linejoin="round"></path><path d="m402 110v64.81l18 9.19v-50.2z"></path><path d="m420 135h-5.1l-12.9-14m13 13v47m-2 0v-45.27l-11-11.73"></path><path d="m413 135h-1.37l-9.63-9m10 9v45m-138 148v-131l-57 5.96v109.12l14.61-5.89v-104.76m-.61 104.57 42 11"></path><path d="m250 211-14 1.17v26.83h14zm3 .36v27.64h18v-29zm-17 31.64h14v26l-14-.98zm17 0v25.96l18 1.04v-26.6zm54-46v25.12l50 .88v-19.68zm44 25v-20m-21-2v22m4-22v22m-7-22v22m75-14v14.68l18 .32v-12.44zm15 3v13m-6-14v14m-3-15v14m-1-14v14"></path></g><path d="m34 167v110.08l241.61 106.92 114.39-92.33-27.44-2.84-72.63 42.81v-156.7l-116.52 15.65v109.16m217.59-245.75v142" stroke-width="1.03"></path><path d="m152 126v93.28h7.89v84.53l14.02-3.53 43.09 11.72" stroke-width="1.03"></path><path d="m72.07 275.73-30.07 4.24v-59.12l29.49-.85.58 55.73 87.93 27.27m-126-26v12.46l242 122.54v-28.55" stroke-width="1.03"></path><ellipse cx="133" cy="394" rx="26" ry="10" stroke-width=".51"></ellipse><path d="m114 363c0 2.76-5.82 5-13 5s-13-2.23-13-5 5.82-5 13-5 13 2.23 13 5z" stroke-width=".51"></path><ellipse cx="402" cy="340" rx="13" ry="5" stroke-width=".51"></ellipse><path d="m392 363c0 2.76-5.82 5-13 5s-13-2.23-13-5 5.82-5 13-5 13 2.23 13 5z" stroke-width=".51"></path><ellipse cx="352" cy="394" rx="13" ry="5" stroke-width=".51"></ellipse><path d="m275.78 412 155.22-145.71v-133.95l-40.63-72.34-134.98 48.35v46.26l-103.64-28.79-117.75 44.2m222-15.02v25m135 112v-96" stroke-width="1.03"></path><path d="m290 175 72.58 14.97.42 99.03" stroke-width="1.03"></path><path d="m175 148v26.9l73 14.1v-22.46z" stroke-width=".51"></path><path d="m248 167-6 1.5.31 20.5m-.31-20-67-17m65 35v-18.2l-65-15.8" stroke-width=".51"></path><path d="m240 169h-2v18m-13-21v19m-3-20v19m-1-19v19m-21-24v20m-4 0v-21m-1-1v21" stroke-width=".51"></path><path d="m152 219-80 2" stroke-width="1.03"></path><path d="m131 153v43m-32-31v36m-20-29v32m-26-23v27m0-27 4 .53v24.47m0-25 22-7m20-9 5 .62v34.38m0-35 27-9m-26 44v-33.53l25-8.47m-10 4v37" stroke-width=".51"></path><path d="m122 198v-37l1 .7v36.1m-18-31.8 1 .48v32.52m1-32 13-4m3-2 7-2m-72 47v-23.83l21-6.17m-10 3v26" stroke-width=".51"></path><path d="m70 205v-26l1 .42v25.44m-12.96-22.86.93.34v23.66m.03-23 9-3m3-1 8-2" stroke-width=".51"></path><path d="m38 135v194m114-230v289m8-286v295m95-301v328m136-386v297m-185-259v247m225-218v191m-140-144v191m-261-185 377-150m32 119-69-119" stroke-width=".15"></path><path d="m352 85v102m-272 39h72v46l-72-10.11z" stroke-width=".51"></path><path d="m85 226v35.28l-5 .72m4-1 68 9m-66-44v33.42l65 7.58m-35-41v37m5 0v-37m-2 0v37" stroke-width=".51"></path><path d="m86 260h2v-34" stroke-width=".51"></path></g></svg>
